<svg xmlns="http://www.w3.org/2000/svg" width="250" height="250" viewBox="0 0 250 250">
  <g fill="none" fill-rule="evenodd" transform="translate(9 4)">
    <g stroke-linecap="round" stroke-linejoin="round" stroke-width="2.16" transform="translate(101.22)">
      <path fill="#FFF" fill-rule="nonzero" stroke="#CCC" d="M45.6737684,117.612 L1.7566834,117.612 C0.786493948,117.612 3.5913672e-13,116.827877 3.5913672e-13,115.860613 L3.5913672e-13,24.1073871 C3.5913672e-13,23.1401227 0.786493948,22.356 1.7566834,22.356 L118.771317,22.356 C119.741506,22.356 120.528,23.1401227 120.528,24.1073871 L120.528,115.860613 C120.528,116.32511 120.342921,116.770582 120.013479,117.099031 C119.684037,117.427479 119.237218,117.612 118.771317,117.612 L45.6737684,117.612 L45.6737684,117.612 Z"/>
      <path fill="#FFF" fill-rule="nonzero" stroke="#CCC" d="M43.4795551,105.948 L22.0739333,105.948 C21.1604152,105.948 20.4198625,105.211143 20.4198625,104.302183 L20.4198625,99.8487968 C20.4198625,98.9398373 19.6793098,98.2029801 18.7657917,98.2029801 L14.2900708,98.2029801 C13.3765527,98.2029801 12.636,97.4661228 12.636,96.5571633 L12.636,42.4388367 C12.636,41.5298772 13.3765527,40.7930199 14.2900708,40.7930199 L18.7657917,40.7930199 C19.6793098,40.7930199 20.4198625,40.0561627 20.4198625,39.1472032 L20.4198625,34.6938167 C20.4198625,33.7848573 21.1604152,33.048 22.0739333,33.048 L99.4260667,33.048 C100.339585,33.048 101.080138,33.7848573 101.080138,34.6938167 L101.080138,39.1472032 C101.080138,40.0561627 101.82069,40.7930199 102.734208,40.7930199 L107.209929,40.7930199 C108.123447,40.7930199 108.864,41.5298772 108.864,42.4388367 L108.864,96.5571633 C108.864,97.4661228 108.123447,98.2029801 107.209929,98.2029801 L102.734208,98.2029801 C101.82069,98.2029801 101.080138,98.9398373 101.080138,99.8487968 L101.080138,104.302183 C101.080138,105.211143 100.339585,105.948 99.4260667,105.948 L78.0204449,105.948"/>
      <path fill="#FFF" fill-rule="nonzero" stroke="#FFCC0A" d="M73.727139,95.2002891 L72.855425,100.818002 C72.7724693,101.371709 72.9946289,101.927109 73.4365677,102.270858 L78.0857092,105.660858 C78.4914092,105.951943 78.732,106.420677 78.732,106.92 C78.732,107.419323 78.4914092,107.888057 78.0857092,108.179142 L73.4365677,111.569142 C72.9547845,111.881538 72.7219931,112.463516 72.855425,113.021998 L73.727139,118.639711 C73.840383,119.128204 73.6937175,119.640564 73.3391406,119.995141 C72.9845637,120.349718 72.4722039,120.496383 71.9837109,120.383139 L66.3659983,119.511425 C65.8122906,119.428469 65.2568915,119.650629 64.9131415,120.092568 L61.5231425,124.741709 C61.2320565,125.147409 60.7633231,125.388 60.264,125.388 C59.7646769,125.388 59.2959435,125.147409 59.0048575,124.741709 L55.6148585,120.092568 C55.3024623,119.610784 54.720484,119.377993 54.1620017,119.511425 L48.5442891,120.383139 C48.0557961,120.496383 47.5434363,120.349718 47.1888594,119.995141 C46.8342825,119.640564 46.687617,119.128204 46.800861,118.639711 L47.672575,113.021998 C47.7555307,112.468291 47.5333711,111.912891 47.0914323,111.569142 L42.4422908,108.179142 C42.0365908,107.888057 41.796,107.419323 41.796,106.92 C41.796,106.420677 42.0365908,105.951943 42.4422908,105.660858 L47.0914323,102.270858 C47.5732155,101.958462 47.8060069,101.376484 47.672575,100.818002 L46.800861,95.2002891 C46.687617,94.7117961 46.8342825,94.1994363 47.1888594,93.8448594 C47.5434363,93.4902825 48.0557961,93.343617 48.5442891,93.456861 L54.1620017,94.328575 C54.7157094,94.4115307 55.2711085,94.1893711 55.6148585,93.7474323 L59.0048575,89.0982908 C59.2959435,88.6925908 59.7646769,88.452 60.264,88.452 C60.7633231,88.452 61.2320565,88.6925908 61.5231425,89.0982908 L64.9131415,93.7474323 C65.2255377,94.2292155 65.807516,94.4620069 66.3659983,94.328575 L71.9837109,93.456861 C72.4630583,93.3920333 72.9451838,93.5547453 73.2872192,93.8967808 C73.6292547,94.2388162 73.7919667,94.7209417 73.727139,95.2002891 Z"/>
      <circle cx="60.75" cy="107.406" r="7.29" fill="#FFF" fill-rule="nonzero" stroke="#CCC"/>
      <line x1="27.216" x2="93.312" y1="67.554" y2="67.554" stroke="#CCC"/>
      <line x1="27.216" x2="93.312" y1="77.274" y2="77.274" stroke="#CCC"/>
      <circle cx="60.75" cy="51.03" r="6.318" fill="#FFF" fill-rule="nonzero" stroke="#FFCC0A"/>
      <g stroke="#FFCC0A" transform="translate(40.824)">
        <line x1="19.926" x2="19.926" y1="10.692" y2=".972"/>
        <line x1=".972" x2="10.692" y1="1.944" y2="11.664"/>
        <line x1="37.908" x2="28.188" y1="1.944" y2="11.664"/>
      </g>
    </g>
    <g transform="translate(0 108.864)">
      <path fill="#FFF" fill-rule="nonzero" stroke="#CCC" stroke-linecap="round" stroke-linejoin="round" stroke-width="2.16" d="M223 51.3290769L223 140.94 8.748 140.94 8.748 51.3290769C8.748 50.3586701 9.54504103 49.572 10.528241 49.572L221.219759 49.572C222.202959 49.572 223 50.3586701 223 51.3290769zM7.97894468 32.076L223.769055 32.076C228.175705 32.076 231.748 35.992613 231.748 40.824L231.748 40.824C231.748 45.655387 228.175705 49.572 223.769055 49.572L7.97894468 49.572C3.57229521 49.572 3.41060513e-13 45.655387 3.41060513e-13 40.824L3.41060513e-13 40.824C3.41060513e-13 35.992613 3.57229521 32.076 7.97894468 32.076z"/>
      <g fill-rule="nonzero" transform="translate(23.088 63.348)">
        <rect width="186.25" height="63.64" fill="#FFF" stroke="#FFCC09" stroke-width="2.16"/>
        <path fill="#FFCC0A" d="M21.609558,0.915543 C20.60829,0.260604 19.379565,0.187452 18.138267,0.696087 C15.805404,1.386459 4.314825,4.798314 3.046095,5.576697 C1.553337,6.497955 0.859536,7.733538 0.859536,9.468612 L0.859536,35.85591 C0.859536,37.715571 2.367153,39.236904 3.855339,39.783258 C5.101209,40.237029 17.671923,43.870626 18.205704,44.023788 L18.166842,44.012358 C19.326987,44.397549 20.449413,44.2341 21.412962,43.539156 C22.88286,42.478452 23.552658,40.489632 23.552658,39.088314 L23.552658,5.18922 C23.552658,3.281553 22.845141,1.722501 21.609558,0.915543 Z M21.484971,39.086028 C21.484971,39.995856 21.006054,41.281731 20.203668,41.860089 C19.783044,42.162984 19.344132,42.221277 18.819495,42.047541 L18.780633,42.034968 C15.159609,40.989123 5.545836,38.194488 4.567428,37.836729 C4.346829,37.756719 4.127373,37.635561 3.921633,37.485828 C3.659886,37.194363 3.871341,36.881181 4.129659,36.881181 L15.079599,36.881181 C15.908274,36.881181 16.994124,36.463986 16.994124,35.126676 L16.994124,9.843516 C16.994124,8.508492 15.908274,8.091297 15.079599,8.091297 L4.129659,8.091297 C3.862197,8.091297 3.645027,7.752969 3.961638,7.45236 C4.017645,7.414641 4.06908,7.375779 4.131945,7.336917 C4.9149,6.879717 12.242673,4.592574 18.741771,2.673477 L18.804636,2.655189 L18.864072,2.630043 C19.498437,2.35458 20.042505,2.356866 20.480274,2.644902 C21.11121,3.058668 21.4884,4.009644 21.4884,5.18922 L21.4884,39.086028 L21.484971,39.086028 Z M13.298805,22.968585 C13.298805,22.315932 13.833729,21.781008 14.484096,21.781008 C15.136749,21.781008 15.67053,22.314789 15.67053,22.968585 C15.67053,23.622381 15.136749,24.15159 14.484096,24.15159 C13.833729,24.15159 13.298805,23.623524 13.298805,22.968585 Z" transform="translate(81 9)"/>
      </g>
      <g stroke-width="2.16" transform="translate(9.72)">
        <path stroke="#FFCC09" d="M21.8220845,5.530576e-14 C19.9054648,5.530576e-14 18.468,0.6804 18.468,1.5552 L18.468,6.804 L25.272,6.804 L25.272,1.5552 C25.272,0.6804 23.7387042,5.530576e-14 21.8220845,5.530576e-14 Z"/>
        <path fill="#FFF" fill-rule="nonzero" stroke="#FFCC09" d="M21.384,26.244 L21.384,25.4664 L18.468,26.244 L3.888,22.356 C3.888,12.693226 11.721226,4.86 21.384,4.86 C31.046774,4.86 38.88,12.693226 38.88,22.356 L21.384,26.244 Z"/>
        <rect width="43.74" height="9.72" y="22.356" fill="#FFF" fill-rule="nonzero" stroke="#CCC" stroke-linecap="round" stroke-linejoin="round"/>
      </g>
    </g>
  </g>
</svg>
